<svg xmlns="http://www.w3.org/2000/svg" viewBox="0 0 15.47 12.32"><defs></defs><g id="Warstwa_2" data-name="Warstwa 2"><g id="Ńëîé_1" data-name="Ńëîé 1"><path class="cls-1" d="M15.47,11.8V12a.37.37,0,0,1-.36.37H.37A.37.37,0,0,1,0,12V11.8a.37.37,0,0,1,.37-.37H15.11A.37.37,0,0,1,15.47,11.8Zm-.36-10H14L13.81.41A.46.46,0,0,0,13.34,0h-.77a.45.45,0,0,0-.46.41L11.94,1.8h-.61V1.62a.09.09,0,0,0-.09-.09h-1a.09.09,0,0,0-.09.09V1.8H9.84V1.62a.09.09,0,0,0-.09-.09h-1a.09.09,0,0,0-.09.09V1.8H8.34V1.62a.09.09,0,0,0-.09-.09h-1a.09.09,0,0,0-.09.09V1.8H6.85V1.62a.09.09,0,0,0-.09-.09h-1a.09.09,0,0,0-.09.09V1.8H5.35V1.62a.09.09,0,0,0-.09-.09h-1a.09.09,0,0,0-.09.09V1.8H3.53L3.37.41A.46.46,0,0,0,2.9,0H2.13a.45.45,0,0,0-.46.41L1.5,1.8H.37A.36.36,0,0,0,0,2.16v.16a.36.36,0,0,0,.37.36H15.11a.36.36,0,0,0,.36-.36V2.16A.36.36,0,0,0,15.11,1.8ZM14.62,3V11.1H.86V3ZM5.6,5.5a.33.33,0,0,0-.33-.33H4.44V4.34A.32.32,0,0,0,4.12,4H3.6a.32.32,0,0,0-.32.33v.83H2.45a.33.33,0,0,0-.33.33V6a.33.33,0,0,0,.33.33h.83v.82a.32.32,0,0,0,.32.33h.52a.32.32,0,0,0,.32-.33V6.34h.83A.33.33,0,0,0,5.6,6Zm7.75,0A.33.33,0,0,0,13,5.17H10.2a.33.33,0,0,0-.33.33V6a.33.33,0,0,0,.33.33H13A.33.33,0,0,0,13.35,6Z"/></g></g></svg>