<svg xmlns="http://www.w3.org/2000/svg" viewBox="0 0 17.5 13.83"><defs><style>.cls-1{fill:#000d20;}</style></defs><g id="Warstwa_2" data-name="Warstwa 2"><g id="Ńëîé_1" data-name="Ńëîé 1"><path class="cls-1" d="M17.5,8.75a8.71,8.71,0,0,1-1.18,4.39l-2.2-1.27A6.23,6.23,0,0,0,9.17,2.54V0A8.78,8.78,0,0,1,17.5,8.75ZM1.18,4.37a8.74,8.74,0,0,0,0,8.77l2.2-1.27a6.23,6.23,0,0,1,5-9.33V0A8.77,8.77,0,0,0,1.18,4.37Zm11.19,5.86h.15c1.06,0,1.25-1.28,1.28-1.68V8.15a1.76,1.76,0,0,0-1.86-1.86A3.2,3.2,0,0,0,9.85,7.52c-.16.16-.31.31-.45.43L9.33,8,9.25,8a2.17,2.17,0,0,0-.33-.1l-.11,0-.09,0v-.1A1.52,1.52,0,0,1,9.13,6.4a1.64,1.64,0,0,1,.37-.28,1.54,1.54,0,0,0,.29-.21,1.23,1.23,0,0,0,.41-.67A1.1,1.1,0,0,0,10,4.48a1.94,1.94,0,0,0-1.66-.69A2.17,2.17,0,0,0,6.6,4.5a2.05,2.05,0,0,0-.33,1.14,2.4,2.4,0,0,0,.62,1.44,8.4,8.4,0,0,0,.89,1l.13.13L8,8.26l0,.1a.58.58,0,0,0-.07.19.8.8,0,0,1-.09.26l0,.06H7.68l-.21,0a1.63,1.63,0,0,1-1.13-.46,2,2,0,0,1-.25-.35C6,8,6,7.88,5.89,7.8a1.21,1.21,0,0,0-.83-.42l-.21,0A1.39,1.39,0,0,0,4,8.18a2.66,2.66,0,0,0,0,2.19,1.75,1.75,0,0,0,1.59,1,1.84,1.84,0,0,0,.33,0,3.44,3.44,0,0,0,1.79-1.15c.17-.17.33-.33.49-.47l.07-.06.08,0,.23.07.22.06.08,0v.08a1.65,1.65,0,0,1-.44,1.36.91.91,0,0,1-.24.16.4.4,0,0,0-.13.07c-.18.12-1,.78-.54,1.61A1.85,1.85,0,0,0,9,13.83h.41a1.75,1.75,0,0,0,1.84-1.68,2.28,2.28,0,0,0-.67-1.67h0a9.61,9.61,0,0,0-1-1.06l-.11-.11.12-.1a.43.43,0,0,0,0-.16.61.61,0,0,1,.11-.28l0,0H10a1.66,1.66,0,0,1,1.21.49,1.2,1.2,0,0,1,.19.29l.13.21A1.42,1.42,0,0,0,12.37,10.23Z"/></g></g></svg>