<svg xmlns="http://www.w3.org/2000/svg" viewBox="0 0 16.39 13.37"><defs><style>.cls-1{fill:#000d20;}</style></defs><g id="Warstwa_2" data-name="Warstwa 2"><g id="Ńëîé_1" data-name="Ńëîé 1"><path class="cls-1" d="M10.17,2.48h3.06c.3,0,.55-.18.55-.41V1.35c0-.22-.25-.41-.55-.41h-.41A1.05,1.05,0,0,0,12.53.3a1,1,0,0,0-1.46,0,1.05,1.05,0,0,0-.29.64h-.61c-.31,0-.55.19-.55.41v.72C9.62,2.3,9.86,2.48,10.17,2.48ZM11.47.7a.48.48,0,0,1,.66,0,.46.46,0,0,1,.12.24h-.9A.46.46,0,0,1,11.47.7Zm4.92,2.16v9.07a1.53,1.53,0,0,1-1.6,1.44H8.61A1.53,1.53,0,0,1,7,11.93V2.86a1.52,1.52,0,0,1,1.6-1.43h.88v.48H8.61a1,1,0,0,0-1.07,1v9.07a1,1,0,0,0,1.07,1h6.18a1,1,0,0,0,1.07-1V2.86a1,1,0,0,0-1.07-.95h-.88V1.43h.88A1.52,1.52,0,0,1,16.39,2.86ZM8.49,8.27c-.09-.1-.31-.35-.29-.42V7.79a1.5,1.5,0,0,1,.46-.74,1.15,1.15,0,0,1,.64-.4,9.68,9.68,0,0,1,1,1.07l.31.35,0,0h0a.27.27,0,0,0,.2,0A.22.22,0,0,0,11,8l.45-.52c.16-.19.33-.38.48-.54a14.43,14.43,0,0,1,1.24-1.2l.52-.47a10.28,10.28,0,0,1,.84-.67L15,4.25h.05l0,0a.79.79,0,0,1,.35.4c.23.46.17.52,0,.64a33.73,33.73,0,0,0-3.26,3.77l-.38.48-.26.35c-.11.16-.24.32-.35.47s-.26.3-.36.3h-.12a2.32,2.32,0,0,1-.35-.33l-.06-.06C10.12,10,9.5,9.38,9.16,9l-.47-.52ZM1.86,6.19,1.53,6V5.77a.38.38,0,0,0-.35-.41H.35A.38.38,0,0,0,0,5.77v.29a.38.38,0,0,0,.35.4h.83a.32.32,0,0,0,.21-.08l.18.08L.83,7a6,6,0,0,0-.62.72l0,.4a.46.46,0,0,0-.14.34v3.67a.43.43,0,0,0,.4.46H2.74a.42.42,0,0,0,.39-.46v-.32l3.63,0v-.52H4.55c-.22,0-.4-.1-.4-.23V11c0-.12.18-.23.4-.23H6.76V9.44H4.52A.43.43,0,0,1,4.12,9V8.32a.43.43,0,0,1,.4-.45H6.76V6.18l-4.25,0a8.52,8.52,0,0,1,.9-2,17.41,17.41,0,0,1,3.35-.44V3.44a8.17,8.17,0,0,0-3.52.61A12,12,0,0,0,1.86,6.19Zm.87,4.45a.3.3,0,0,1-.3.31H1.13a.31.31,0,0,1-.31-.31v-.15a.31.31,0,0,1,.31-.31h1.3a.3.3,0,0,1,.3.31Zm0-2.77a.41.41,0,0,1,.36.45V9a.41.41,0,0,1-.36.46H1.19A.42.42,0,0,1,.82,9V8.32a.42.42,0,0,1,.37-.45Z"/></g></g></svg>