<svg xmlns="http://www.w3.org/2000/svg" viewBox="0 0 17.5 10.82"><defs><style>.cls-1{fill:#000d20;}</style></defs><g id="Warstwa_2" data-name="Warstwa 2"><g id="Ńëîé_1" data-name="Ńëîé 1"><path class="cls-1" d="M6.94,8.11H3.34A.14.14,0,0,1,3.2,8V6.23a.14.14,0,0,1,.14-.14h3a5.37,5.37,0,0,1,0-.7,6.14,6.14,0,0,1,.08-1c-2.77,0-4.71.19-4.71.19A11.24,11.24,0,0,1,3.26,2.13S5.88,2,6.82,2h.53l.1-.14-.55,0h-1L3.18,2l-.05.07h0A7.65,7.65,0,0,0,2.05,3.54c-.18.27-.35.53-.46.74v0H1.46s-.13-.57-.39-.59H.79c-.27,0-.58,0-.59.48s.33.51.61.51H1a2.57,2.57,0,0,0,.41-.09h.07l-.07.17h0a2.89,2.89,0,0,0-1,.79.81.81,0,0,0-.26.31A4,4,0,0,0,.16,8h0a.14.14,0,0,0-.07.13v2.53a.15.15,0,0,0,.14.15H1.85A.15.15,0,0,0,2,10.67v-.8c1.66.07,3.3.1,4.8.09H8.47A5.91,5.91,0,0,1,6.94,8.11Zm-4.6.81a.28.28,0,0,1-.28.28H.73a.28.28,0,0,1-.28-.28v-.2a.29.29,0,0,1,.28-.28H2.06a.29.29,0,0,1,.28.28Zm.45-2.26c0,.41,0,1-.72,1s-1.61,0-1.61,0a2.76,2.76,0,0,1,0-1.57h2A.58.58,0,0,1,2.79,6.66ZM12.11,0A5.39,5.39,0,1,0,17.5,5.39,5.4,5.4,0,0,0,12.11,0Zm0,9.82a4.43,4.43,0,1,1,4.43-4.43A4.43,4.43,0,0,1,12.11,9.82ZM14.9,2.55a.19.19,0,0,1,.22,0,.79.79,0,0,1,.39.43c.22.43.2.58,0,.77a34.22,34.22,0,0,0-3.33,3.88l-.56.75c-.19.26-.32.39-.57.33-.1,0-.25-.17-.47-.4s-.82-.86-1.12-1.2l-.61-.66c-.19-.22-.35-.39-.3-.54,0-.38.85-1.32,1.23-1.19A15.44,15.44,0,0,1,11,6.09h.08a.09.09,0,0,0,.05,0c.27-.31.6-.68.86-1,.42-.48,1.1-1,1.64-1.54A15.44,15.44,0,0,1,14.9,2.55Z"/></g></g></svg>