<svg xmlns="http://www.w3.org/2000/svg" viewBox="0 0 16.25 13.06"><defs><style>.cls-1{fill:#000d20;}</style></defs><g id="Warstwa_2" data-name="Warstwa 2"><g id="Ńëîé_1" data-name="Ńëîé 1"><path class="cls-1" d="M2.11,11.73a.75.75,0,0,1,.11.43.89.89,0,0,1-.12.45.91.91,0,0,1-.37.33,1.19,1.19,0,0,1-.54.12,1.48,1.48,0,0,1-.63-.12,1,1,0,0,1-.41-.36A1.21,1.21,0,0,1,0,12v0l.4,0v0a.8.8,0,0,0,.1.34.55.55,0,0,0,.26.21.87.87,0,0,0,.4.09.78.78,0,0,0,.35-.07.47.47,0,0,0,.22-.16.39.39,0,0,0,.07-.23A.38.38,0,0,0,1.75,12a.59.59,0,0,0-.23-.16L1,11.67a2.28,2.28,0,0,1-.53-.19A.77.77,0,0,1,.2,11.2a.79.79,0,0,1-.1-.37.8.8,0,0,1,.13-.43.81.81,0,0,1,.35-.31,1.4,1.4,0,0,1,.51-.1,1.35,1.35,0,0,1,.55.11.83.83,0,0,1,.37.32,1,1,0,0,1,.13.47v0l-.4,0v0a.55.55,0,0,0-.17-.39.65.65,0,0,0-.45-.13.72.72,0,0,0-.46.12.35.35,0,0,0-.13.28A.32.32,0,0,0,.61,11a1.29,1.29,0,0,0,.53.2,2.83,2.83,0,0,1,.6.19A.82.82,0,0,1,2.11,11.73Zm1-.05h1.5v-.41H3.08v-.82h1.6V10h-2v3H4.75V12.6H3.08Zm4.08.49.5.84H7.13l-.37-.62L6.51,12a.75.75,0,0,0-.18-.18.55.55,0,0,0-.15-.08H5.6V13H5.18V10H6.42a1.62,1.62,0,0,1,.56.08.74.74,0,0,1,.32.29,1,1,0,0,1,.11.46.79.79,0,0,1-.19.54.86.86,0,0,1-.51.26,1,1,0,0,1,.15.11A2.2,2.2,0,0,1,7.16,12.17Zm-.44-.9a.38.38,0,0,0,.19-.16A.51.51,0,0,0,7,10.87a.41.41,0,0,0-.13-.32.62.62,0,0,0-.42-.12H5.6v.89h.74A1.25,1.25,0,0,0,6.72,11.27Zm2.23.9-.12.36c0-.11-.07-.23-.11-.36L8,10H7.55l1.08,3H9l1.09-3H9.69Zm1.48.84h.42V10h-.42ZM13.35,12a.87.87,0,0,1-.27.53.71.71,0,0,1-.49.18.78.78,0,0,1-.44-.13.79.79,0,0,1-.3-.39,1.79,1.79,0,0,1-.1-.64,2,2,0,0,1,.08-.55.81.81,0,0,1,.29-.41.8.8,0,0,1,.5-.15.67.67,0,0,1,.43.13,1,1,0,0,1,.26.45v0l.42-.11v0a1.18,1.18,0,0,0-.4-.64,1.09,1.09,0,0,0-.7-.23,1.33,1.33,0,0,0-.68.18,1.22,1.22,0,0,0-.47.53,1.84,1.84,0,0,0-.16.8,2.05,2.05,0,0,0,.14.79,1.2,1.2,0,0,0,.43.57,1.26,1.26,0,0,0,.73.2,1.11,1.11,0,0,0,.74-.26,1.38,1.38,0,0,0,.42-.74v0l-.42-.11Zm1.24.65v-.92h1.5v-.41h-1.5v-.82h1.6V10h-2v3h2.09V12.6ZM0,4.87c0,.07,0,.18,0,.28s0,.21.05.29a.37.37,0,0,1,0,.09v0a.06.06,0,0,0,.07,0l.55-.06A4.24,4.24,0,0,0,.93,6,1.32,1.32,0,0,1,1.26,6h0l.3,0A2.73,2.73,0,0,1,1.28,5,2.75,2.75,0,0,1,5.59,2.37l0,0,.08-.07L5.8,2.2l.14-.11L6.09,2l0,0a2.43,2.43,0,0,0-.28-.2l.25-.46a0,0,0,0,0,0-.07s-.2-.12-.42-.22L5.5,1l-.14,0-.1,0h0a.07.07,0,0,0-.08,0L5.06,1c0,.08-.11.2-.17.32l-.08,0-.22-.05-.16,0H3.78l-.19,0-.12,0C3.39,1,3.3.8,3.3.8s0-.05-.07,0l-.15,0L2.75.88,2.58.94,2.43,1l-.1.05h0a.07.07,0,0,0,0,.08s.09.24.19.47h0l-.27.16-.12.09L2,1.89l0,0L1.88,2h0l0,0h0l-.08.07-.08.08-.05,0-.06,0-.2.23h0C1.14,2.36.9,2.25.9,2.25a.08.08,0,0,0-.09,0l-.08.11L.65,2.5l-.09.14-.14.27L.36,3a.05.05,0,0,0,0,.07s.24.13.49.24A3.54,3.54,0,0,0,.62,4.6l-.54.08S0,4.7,0,4.73v0A.41.41,0,0,0,0,4.87ZM5.92,2.48l-.09.07-.2.17,0,0-.14,0c-.19-.05-.37-.08-.55-.11a5,5,0,0,0-.5,0L4,2.56H3.89l0,0-.08.12a4.37,4.37,0,0,0-.25.36,2,2,0,0,0-.11.2,1.06,1.06,0,0,0-.1.17c-.06.11-.09.18-.09.18v0l0,.09.17.32a6.46,6.46,0,0,0,.6.86l.1.11,0,.07,0,.13,0,.12L4,5.56l0,.18v0L5.61,5.7a3.7,3.7,0,0,1,6.5-1.36h0a2.39,2.39,0,0,1,1.39-.76l0,0-.1-.15-.06-.07-.07-.09-.18-.2L13,3a1,1,0,0,0,0-.14,5.35,5.35,0,0,0,.11-.55c0-.18,0-.35.05-.5s0-.27,0-.36V1.31l-.05,0-.11-.08C13,1.12,12.86,1,12.73,1l-.2-.11a.81.81,0,0,0-.18-.1L12.18.65h0l-.09,0-.32.17a5.87,5.87,0,0,0-.86.6l-.11.1-.07,0-.13,0-.13,0a.81.81,0,0,0-.19,0l-.18,0-.18,0-.2,0H9.35l-.07-.12A5.82,5.82,0,0,0,8.65.36,3.47,3.47,0,0,0,8.41.1L8.31,0,8.12,0l-.2,0L7.69.11,7.47.17l-.2,0L7.14.27h0L7,.41C7,.5,7,.62,6.94.76a4.91,4.91,0,0,0-.11.48,5,5,0,0,0-.07.56c0,.05,0,.09,0,.14L6.68,2l-.23.14-.09.05-.08.06-.14.1L6,2.42Zm6.82,5.84a3.09,3.09,0,0,1-.48-.4,1.6,1.6,0,0,0-1.39-.47c-.77.09-7.23,1.27-9.17,1.47h0a1.35,1.35,0,1,1-.29-2.68h0c2-.21,8.4-.41,9.17-.46A1.79,1.79,0,0,0,12,5a2.38,2.38,0,0,1,2.82-1,2.46,2.46,0,0,1,1.11.77l0,.06L14,5l-.59,1.33.86,1.18,2-.21,0,.09A2.45,2.45,0,0,1,12.74,8.32ZM2.67,7.44a1.07,1.07,0,1,0-.95,1.18A1.08,1.08,0,0,0,2.67,7.44Z"/></g></g></svg>