<svg xmlns="http://www.w3.org/2000/svg" viewBox="0 0 17.5 8.2"><defs><style>.cls-1{fill:#000d20;}</style></defs><g id="Warstwa_2" data-name="Warstwa 2"><g id="Ńëîé_1" data-name="Ńëîé 1"><path class="cls-1" d="M15.83,6.89a1.31,1.31,0,1,1-1.31-1.31A1.31,1.31,0,0,1,15.83,6.89ZM3.36,5.58A1.31,1.31,0,1,0,4.67,6.89,1.31,1.31,0,0,0,3.36,5.58ZM17.5,3.18c0,1.75-.18,3.18-.4,3.18h-.88a1.78,1.78,0,0,0-3.4,0H5.05a1.77,1.77,0,0,0-3.39,0H.94a.95.95,0,0,1,0-1.89H11.86a1.3,1.3,0,0,1,0-.34c0-.55,0-1,.5-1h0c0-1.73.18-3.13.4-3.13H15C15.23,0,17.5,1.42,17.5,3.18ZM14.87.69H13.3v2h1.57Zm1.9,2A3.91,3.91,0,0,0,15.18.82V2.65Zm-6.68,1a.79.79,0,0,1-.79.79.79.79,0,1,1,0-1.58A.79.79,0,0,1,10.09,3.61ZM8.74,3.5H9l-.2-.2A.5.5,0,0,0,8.74,3.5Zm.08.43L9,3.72H8.74A.54.54,0,0,0,8.82,3.93Zm.37-.05L9,4.09a.49.49,0,0,0,.21.08Zm0-.83A.67.67,0,0,0,9,3.14l.21.2Zm.22.29.2-.2a.72.72,0,0,0-.2-.09Zm.2.75-.2-.21v.29A.5.5,0,0,0,9.61,4.09Zm.25-.37H9.57l.2.21A.56.56,0,0,0,9.86,3.72Zm0-.22a.52.52,0,0,0-.09-.2l-.2.2ZM1,2.33c0-.18-.38-.39-.28-.61l1.57-.18A7.57,7.57,0,0,1,5.58.73,8.83,8.83,0,0,1,9.1,1.89a6.51,6.51,0,0,1,2.1.89,1.43,1.43,0,0,1,.28,1,1.87,1.87,0,0,1,0,.21h-1.3a.86.86,0,0,0,.07-.36.95.95,0,0,0-1.89,0A.86.86,0,0,0,8.43,4h-5a.86.86,0,0,0,.08-.36,1,1,0,0,0-1.9,0A.86.86,0,0,0,1.73,4H1.51L.89,3.83a4,4,0,0,1-.14-.89.61.61,0,0,1,0-.14C.79,2.52,1,2.48,1,2.33Zm9.14.17a.94.94,0,0,1,.49.62h.56A1.27,1.27,0,0,0,10.14,2.5ZM3.27,1.42l.41.4H8.3A8.47,8.47,0,0,0,5.47,1,6.76,6.76,0,0,0,3.27,1.42ZM3.4,3.61a.8.8,0,1,1-.8-.79A.79.79,0,0,1,3.4,3.61ZM2,3.5h.29l-.21-.2A.5.5,0,0,0,2,3.5Zm.08.43.21-.21H2A.54.54,0,0,0,2.12,3.93Zm.37-.05-.21.21a.54.54,0,0,0,.21.08Zm0-.83a.78.78,0,0,0-.21.09l.21.2Zm.22.29.21-.2a.78.78,0,0,0-.21-.09Zm.21.75-.21-.21v.29A.54.54,0,0,0,2.92,4.09Zm.24-.37H2.87l.21.21A.54.54,0,0,0,3.16,3.72Zm0-.22a.5.5,0,0,0-.08-.2l-.21.2Z"/></g></g></svg>