<svg xmlns="http://www.w3.org/2000/svg" viewBox="0 0 13.75 13.75"><defs><style>.cls-1{fill:#000d20;}</style></defs><g id="Warstwa_2" data-name="Warstwa 2"><g id="Ńëîé_1" data-name="Ńëîé 1"><path class="cls-1" d="M13.71,11.33a.69.69,0,0,1,0,.2L12,9.82l-1.63.44-.43,1.62,1.69,1.69-.11,0A2.82,2.82,0,0,1,8.3,11.8a2.76,2.76,0,0,1-.14-1.31,1.84,1.84,0,0,0-.64-1.65C6.67,8,5.79,7.14,5,6.26a2,2,0,0,0-1.75-.67A2.75,2.75,0,0,1,.28,3.79,2.77,2.77,0,0,1,.17,2.23a.14.14,0,0,1,0-.07L1.82,3.79l1.62-.43.44-1.63L2.25.1l.1,0A2.81,2.81,0,0,1,5.69,2.49a3.48,3.48,0,0,1,0,.72,1.83,1.83,0,0,0,.59,1.58c.86.84,1.7,1.69,2.55,2.54a1.82,1.82,0,0,0,1.89.73A2.8,2.8,0,0,1,13.71,11.33ZM6.12,9c-1.22,1.2-2.43,2.42-3.64,3.63l-.22.22c-.15.14-.3.27-.5.08s-.09-.34.05-.49L2.18,12C3.39,10.83,4.6,9.61,5.82,8.4c.18-.18.22-.29,0-.5s-.31-.13-.47,0l-.29.29-3.7,3.72c-.14.15-.31.28-.49.12s-.11-.38.06-.54l4-4c.15-.15.38-.23.14-.48s-.35-.11-.52.06C4,7.69,3.34,8.31,2.72,8.93S1.21,10.42.47,11.18a1.49,1.49,0,0,0,1,2.57,1.49,1.49,0,0,0,1.15-.5l3.9-3.9c.14-.14.4-.26.12-.53S6.25,8.85,6.12,9Zm5.62-6.3.93-.36,1-1.58L13.12.16l-1.58,1-.37.93L7.64,5.64l.56.56Z"/></g></g></svg>