<svg xmlns="http://www.w3.org/2000/svg" viewBox="0 0 11.44 14.65"><defs><style>.cls-1{fill:#000d20;fill-rule:evenodd;}</style></defs><g id="Warstwa_2" data-name="Warstwa 2"><g id="Ńëîé_1" data-name="Ńëîé 1"><path class="cls-1" d="M10,7.34c.21.39-.19.62-.48.84-1.31,1-2.61,2-4,2.92-.4.28-.66.27-1-.13-1.06-1.49-1.19-1.25.29-2.32,1.1-.81,2.2-1.6,3.29-2.42A1.31,1.31,0,0,1,8.94,6,3.58,3.58,0,0,1,10,7.34ZM1,3.24c.79-.57,1.55-1.18,2.35-1.73.45-.3.67-.63.33-1.11S3,.06,2.63.39,1.9.84,1.57.33A.56.56,0,0,0,.66.17C.33.43.44.68.65,1A.64.64,0,0,1,.44,2,.84.84,0,0,0,0,2.57a.74.74,0,0,0,.33.71A.52.52,0,0,0,1,3.24Zm9.4,7.83c-.61.47-1.24.91-1.86,1.36-1,.71-.94,1.37.18,1.93a5,5,0,0,0,.66.25,1.83,1.83,0,0,0,1.65-.37c.18-.12.4-.25.22-.51s-.34-.07-.5,0c-.33.2-.44.47-1.43.27-.26,0-.82-.2-.55-.66a.53.53,0,0,1,.91-.07.54.54,0,0,0,.73,0c.18-.13.35-.33.22-.55-.29-.5,0-.81.32-1s.6-.41.38-.71S10.75,10.84,10.44,11.07ZM5.58,3.16a.59.59,0,0,0-.2.07c-1,.74-2,1.48-3,2.24-.36.27-.12.51.05.79s.49.46.78.26C4.18,5.84,5.11,5.13,6,4.41a.46.46,0,0,0,.14-.64A1.34,1.34,0,0,0,5.58,3.16Zm1,1.75-3,2.23c-.36.28-.12.52,0,.79s.49.46.78.26c1-.68,1.88-1.39,2.8-2.1a.47.47,0,0,0,.14-.65,1.34,1.34,0,0,0-.59-.61A.93.93,0,0,0,6.58,4.91ZM4,1.84C3.2,2.47,2.37,3,1.56,3.61a1.09,1.09,0,0,0-.47.54.87.87,0,0,0,.39.72.5.5,0,0,0,.66,0C3,4.21,3.93,3.6,4.79,2.91a.65.65,0,0,0,0-1C4.53,1.59,4.33,1.55,4,1.84ZM7.16,12.49a.42.42,0,0,0,.58.09c.92-.65,1.82-1.3,2.73-2a.51.51,0,0,0,.15-.59.27.27,0,0,0-.29-.2.48.48,0,0,0-.18.06,25.54,25.54,0,0,0-2.9,2.18C7.11,12.2,7,12.33,7.16,12.49Zm0-1.05c.8-.6,1.62-1.18,2.43-1.76.13-.1.28-.19.31-.37a.5.5,0,0,0-.15-.46c-.14-.13-.27-.06-.38,0-.9.66-1.8,1.32-2.69,2-.16.13-.39.35-.15.6S6.88,11.61,7.11,11.44Z"/></g></g></svg>