<svg aria-hidden="true" style="position: absolute; width: 0; height: 0; overflow: hidden;" version="1.1" xmlns="http://www.w3.org/2000/svg" xmlns:xlink="http://www.w3.org/1999/xlink">
<defs>
<symbol id="icon-clear" viewBox="0 0 24 24">
<path d="M18.984 6.422l-5.578 5.578 5.578 5.578-1.406 1.406-5.578-5.578-5.578 5.578-1.406-1.406 5.578-5.578-5.578-5.578 1.406-1.406 5.578 5.578 5.578-5.578z"></path>
</symbol>
<symbol id="icon-cancel" viewBox="0 0 24 24">
<path d="M17.016 15.609l-3.609-3.609 3.609-3.609-1.406-1.406-3.609 3.609-3.609-3.609-1.406 1.406 3.609 3.609-3.609 3.609 1.406 1.406 3.609-3.609 3.609 3.609zM12 2.016q4.125 0 7.055 2.93t2.93 7.055-2.93 7.055-7.055 2.93-7.055-2.93-2.93-7.055 2.93-7.055 7.055-2.93z"></path>
</symbol>
<symbol id="icon-navigate_next" viewBox="0 0 24 24">
<path d="M9.984 6l6 6-6 6-1.406-1.406 4.594-4.594-4.594-4.594z"></path>
</symbol>
<symbol id="icon-navigate_before" viewBox="0 0 24 24">
<path d="M15.422 7.406l-4.594 4.594 4.594 4.594-1.406 1.406-6-6 6-6z"></path>
</symbol>
<symbol id="icon-close1" viewBox="0 0 22 28">
<path d="M20.281 20.656c0 0.391-0.156 0.781-0.438 1.062l-2.125 2.125c-0.281 0.281-0.672 0.438-1.062 0.438s-0.781-0.156-1.062-0.438l-4.594-4.594-4.594 4.594c-0.281 0.281-0.672 0.438-1.062 0.438s-0.781-0.156-1.062-0.438l-2.125-2.125c-0.281-0.281-0.438-0.672-0.438-1.062s0.156-0.781 0.438-1.062l4.594-4.594-4.594-4.594c-0.281-0.281-0.438-0.672-0.438-1.062s0.156-0.781 0.438-1.062l2.125-2.125c0.281-0.281 0.672-0.438 1.062-0.438s0.781 0.156 1.062 0.438l4.594 4.594 4.594-4.594c0.281-0.281 0.672-0.438 1.062-0.438s0.781 0.156 1.062 0.438l2.125 2.125c0.281 0.281 0.438 0.672 0.438 1.062s-0.156 0.781-0.438 1.062l-4.594 4.594 4.594 4.594c0.281 0.281 0.438 0.672 0.438 1.062z"></path>
</symbol>
<symbol id="icon-angle-up" viewBox="0 0 18 28">
<path d="M16.797 18.5c0 0.125-0.063 0.266-0.156 0.359l-0.781 0.781c-0.094 0.094-0.219 0.156-0.359 0.156-0.125 0-0.266-0.063-0.359-0.156l-6.141-6.141-6.141 6.141c-0.094 0.094-0.234 0.156-0.359 0.156s-0.266-0.063-0.359-0.156l-0.781-0.781c-0.094-0.094-0.156-0.234-0.156-0.359s0.063-0.266 0.156-0.359l7.281-7.281c0.094-0.094 0.234-0.156 0.359-0.156s0.266 0.063 0.359 0.156l7.281 7.281c0.094 0.094 0.156 0.234 0.156 0.359z"></path>
</symbol>
<symbol id="icon-chevron-circle-down" viewBox="0 0 24 28">
<path d="M12.703 20.297l7.094-7.094c0.391-0.391 0.391-1.016 0-1.406l-1.594-1.594c-0.391-0.391-1.016-0.391-1.406 0l-4.797 4.797-4.797-4.797c-0.391-0.391-1.016-0.391-1.406 0l-1.594 1.594c-0.391 0.391-0.391 1.016 0 1.406l7.094 7.094c0.391 0.391 1.016 0.391 1.406 0zM24 14c0 6.625-5.375 12-12 12s-12-5.375-12-12 5.375-12 12-12 12 5.375 12 12z"></path>
</symbol>
<symbol id="icon-chevron-circle-up" viewBox="0 0 24 28">
<path d="M18.203 17.797l1.594-1.594c0.391-0.391 0.391-1.016 0-1.406l-7.094-7.094c-0.391-0.391-1.016-0.391-1.406 0l-7.094 7.094c-0.391 0.391-0.391 1.016 0 1.406l1.594 1.594c0.391 0.391 1.016 0.391 1.406 0l4.797-4.797 4.797 4.797c0.391 0.391 1.016 0.391 1.406 0zM24 14c0 6.625-5.375 12-12 12s-12-5.375-12-12 5.375-12 12-12 12 5.375 12 12z"></path>
</symbol>
<symbol id="icon-chevron-right" viewBox="0 0 20 32">
<path d="M17.842 17.061l-12.146 12.146c-0.586 0.586-1.536 0.586-2.121 0l-1.417-1.417c-0.585-0.585-0.586-1.533-0.002-2.119l9.626-9.672-9.626-9.672c-0.583-0.586-0.582-1.534 0.002-2.119l1.417-1.417c0.586-0.586 1.536-0.586 2.121 0l12.146 12.146c0.586 0.586 0.586 1.535 0 2.121z"></path>
</symbol>
<symbol id="icon-plus-circle" viewBox="0 0 24 28">
<path d="M19 15v-2c0-0.547-0.453-1-1-1h-4v-4c0-0.547-0.453-1-1-1h-2c-0.547 0-1 0.453-1 1v4h-4c-0.547 0-1 0.453-1 1v2c0 0.547 0.453 1 1 1h4v4c0 0.547 0.453 1 1 1h2c0.547 0 1-0.453 1-1v-4h4c0.547 0 1-0.453 1-1zM24 14c0 6.625-5.375 12-12 12s-12-5.375-12-12 5.375-12 12-12 12 5.375 12 12z"></path>
</symbol>
<symbol id="icon-wrench" viewBox="0 0 26 28">
<path d="M6 23c0-0.547-0.453-1-1-1s-1 0.453-1 1 0.453 1 1 1 1-0.453 1-1zM16.063 16.438l-10.656 10.656c-0.359 0.359-0.875 0.578-1.406 0.578s-1.047-0.219-1.422-0.578l-1.656-1.687c-0.375-0.359-0.594-0.875-0.594-1.406s0.219-1.047 0.594-1.422l10.641-10.641c0.812 2.047 2.453 3.687 4.5 4.5zM25.969 9.641c0 0.516-0.187 1.156-0.359 1.656-0.984 2.781-3.656 4.703-6.609 4.703-3.859 0-7-3.141-7-7s3.141-7 7-7c1.141 0 2.625 0.344 3.578 0.984 0.156 0.109 0.25 0.25 0.25 0.438 0 0.172-0.109 0.344-0.25 0.438l-4.578 2.641v3.5l3.016 1.672c0.516-0.297 4.141-2.578 4.453-2.578s0.5 0.234 0.5 0.547z"></path>
</symbol>
<symbol id="icon-discout" viewBox="0 0 32 32">
<path d="M31.062 16c0 2.125-1.227 3.927-3.050 4.642v2.33c0 0.55-0.446 0.996-0.995 0.996h-23.033c-0.551 0-0.996-0.446-0.996-0.996v-2.33c-1.824-0.715-3.050-2.517-3.050-4.642s1.227-3.927 3.051-4.642v-2.33c0-0.551 0.445-0.996 0.996-0.996h23.033c0.549 0 0.995 0.445 0.995 0.996v2.33c1.823 0.715 3.049 2.517 3.049 4.642zM11.952 16h-3.984v0.996h3.984v-0.996zM16.682 12.604c-0.281-0.309-0.667-0.463-1.157-0.463-0.487 0-0.871 0.154-1.151 0.463-0.281 0.308-0.422 0.782-0.422 1.422 0 0.643 0.141 1.118 0.422 1.427 0.28 0.308 0.481 0.462 0.979 0.462 0.48 0 1.049-0.154 1.33-0.462 0.28-0.309 0.421-0.784 0.421-1.427-0.001-0.64-0.142-1.115-0.422-1.422zM20.070 11.985l-5.11 8.022h1.012l5.085-8.022h-0.987zM21.661 16.587c-0.28-0.308-0.667-0.462-1.157-0.462-0.486 0-0.871 0.154-1.152 0.462-0.28 0.309-0.42 0.782-0.42 1.422 0 0.643 0.14 1.119 0.42 1.427 0.281 0.309 0.67 0.463 1.168 0.463 0.48 0 0.861-0.154 1.142-0.463 0.28-0.308 0.421-0.784 0.421-1.427-0.001-0.64-0.142-1.113-0.422-1.422zM20.495 19.128c-0.144 0-0.256-0.061-0.337-0.181-0.107-0.157-0.161-0.469-0.161-0.936s0.054-0.78 0.161-0.94c0.078-0.117 0.19-0.177 0.337-0.177s0.261 0.060 0.342 0.177c0.104 0.16 0.156 0.474 0.156 0.94s-0.054 0.78-0.161 0.94c-0.078 0.118-0.19 0.177-0.337 0.177zM15.516 15.145c-0.144 0-0.256-0.061-0.337-0.182-0.107-0.157-0.161-0.469-0.161-0.936s0.054-0.78 0.161-0.94c0.078-0.117 0.19-0.176 0.337-0.176s0.26 0.059 0.342 0.176c0.104 0.16 0.156 0.474 0.156 0.94s-0.054 0.78-0.161 0.94c-0.079 0.118-0.191 0.178-0.337 0.178z"></path>
</symbol>
<symbol id="icon-tools" viewBox="0 0 32 32">
<path d="M27.783 7.936c0.959 2.313 0.502 5.074-1.379 6.955-2.071 2.071-5.201 2.395-7.634 1.022l-1.759 1.921 1.255 1.26 0.75-0.75c0.383-0.384 1.005-0.384 1.388 0l6.082 6.144c0.384 0.383 0.384 1.005 0 1.388l-2.776 2.776c-0.383 0.384-1.005 0.384-1.388 0l-6.082-6.144c-0.384-0.383-0.384-1.005 0-1.388l0.685-0.685-1.196-1.199-8.411 9.189c-0.767 0.767-2.010 0.767-2.776 0l-0.694-0.694c-0.767-0.767-0.767-2.010 0-2.776l9.582-8.025-6.364-6.381-2.010-0.001-2.326-3.74 1.872-1.875 3.825 2.341 0.025 1.968 6.438 6.463 1.873-1.568c-1.831-2.496-1.64-6.012 0.616-8.268 1.872-1.872 4.618-2.337 6.925-1.396l-4.124 4.067 3.471 3.471 4.132-4.075zM6.15 25.934c-0.383-0.383-1.004-0.383-1.388 0-0.384 0.384-0.384 1.005 0 1.389 0.384 0.383 1.005 0.383 1.388 0 0.384-0.385 0.384-1.006 0-1.389z"></path>
</symbol>
<symbol id="icon-people-arrows" viewBox="0 0 36 32">
<path d="M6 8c-2.208 0-4-1.792-4-4s1.792-4 4-4 4 1.792 4 4-1.792 4-4 4zM6 19.005c0 0.003-0.001 0.005-0.001 0.007 0 0.783 0.328 1.491 0.853 1.993l3.148 2.971v6.024c0 1.104-0.896 2-2 2h-4c-1.104 0-2-0.896-2-2v-8c-1.104 0-2-0.896-2-2v-6c0-2.208 1.792-4 4-4h4c1.686 0.002 3.127 1.047 3.711 2.527-0.115 0.079-0.248 0.126-0.351 0.223l-4.508 4.255c-0.526 0.502-0.852 1.21-0.852 1.993v0.007zM30 8c-2.208 0-4-1.792-4-4s1.792-4 4-4 4 1.792 4 4-1.792 4-4 4zM32 10c2.208 0 4 1.792 4 4v6c0 1.104-0.896 2-2 2v8c0 1.104-0.896 2-2 2h-4c-1.104 0-2-0.896-2-2v-6.024l3.148-2.972c0.526-0.505 0.853-1.215 0.853-2s-0.327-1.495-0.853-2l-4.508-4.254c-0.101-0.099-0.236-0.145-0.351-0.224 0.585-1.479 2.026-2.525 3.711-2.526h4zM27.775 18.459c0.139 0.14 0.225 0.333 0.225 0.546s-0.086 0.406-0.225 0.546l-4.508 4.254c-0.135 0.128-0.317 0.207-0.518 0.207-0.414 0-0.75-0.336-0.75-0.75v-2.262h-8v2.259c0 0.001-0 0.002-0 0.003 0 0.414-0.336 0.75-0.75 0.75-0.2 0-0.383-0.079-0.517-0.207l-4.508-4.254c-0.139-0.14-0.225-0.333-0.225-0.546s0.086-0.406 0.225-0.546l4.508-4.254c0.135-0.128 0.317-0.207 0.518-0.207 0.414 0 0.75 0.336 0.75 0.75v2.253h8v-2.25c0-0.001 0-0.001 0-0.002 0-0.414 0.336-0.75 0.75-0.75 0.201 0 0.383 0.079 0.517 0.207z"></path>
</symbol>
<symbol id="icon-people-carry" viewBox="0 0 40 32">
<path d="M8 6c-1.656 0-3-1.344-3-3s1.344-3 3-3 3 1.344 3 3-1.344 3-3 3zM32 6c-1.656 0-3-1.344-3-3s1.344-3 3-3 3 1.344 3 3-1.344 3-3 3zM39.856 29.256c0.412 1.025-0.088 2.188-1.112 2.6-0.244 0.1-0.494 0.144-0.744 0.144-0.794 0-1.544-0.475-1.856-1.256l-1.731-4.325 0.125-1.137 2.569-2.9zM37.719 16.144c0.287 1.25-0.050 2.575-0.9 3.544l-4.2 4.744-0.631 5.787c-0.113 1.025-0.981 1.781-1.988 1.781-0.075 0-0.144-0.006-0.219-0.012-1.094-0.119-1.887-1.106-1.769-2.206l0.631-5.8c0.094-0.813 0.431-1.569 0.975-2.188l2.706-3.063-1.1-4.394-0.425 1.275c-0.256 0.788-0.744 1.463-1.531 2.038l-3.194 2.031c-0.288 0.181-0.756 0.287-1.075 0.313h-10c-0.319-0.025-0.787-0.131-1.075-0.313l-3.194-2.031c-0.788-0.575-1.275-1.256-1.531-2.038l-0.425-1.275-1.1 4.394 2.706 3.063c0.544 0.619 0.881 1.375 0.975 2.188l0.631 5.8c0.119 1.1-0.669 2.088-1.769 2.206-0.075 0.006-0.144 0.012-0.219 0.012-1.012 0-1.875-0.762-1.988-1.781l-0.631-5.787-4.2-4.744c-0.856-0.969-1.188-2.294-0.9-3.544l1.15-5.012c0.287-1.25 1.162-2.3 2.344-2.806 1.156-0.5 2.431-0.419 3.506 0.206 1.419 0.838 2.488 2.15 3.006 3.713l0.706 2.119 1.006 0.637v-6c0-0.55 0.45-1 1-1h10c0.55 0 1 0.45 1 1v6l1-0.637 0.706-2.119c0.525-1.556 1.588-2.875 3.006-3.713 1.069-0.625 2.35-0.706 3.506-0.206 1.181 0.506 2.056 1.556 2.344 2.806zM2.894 22.381l2.569 2.9 0.125 1.137-1.731 4.325c-0.406 1.006-1.55 1.525-2.6 1.113-1.025-0.413-1.525-1.575-1.113-2.6z"></path>
</symbol>
<symbol id="icon-coins" viewBox="0 0 32 32">
<path d="M0 25.331c2.581 1.819 7.3 2.669 12 2.669s9.419-0.85 12-2.669v2.669c0 2.206-5.375 4-12 4s-12-1.794-12-4v-2.669zM20 8c-6.625 0-12-1.794-12-4s5.375-4 12-4 12 1.794 12 4-5.375 4-12 4zM0 18.775c2.581 2.125 7.306 3.225 12 3.225s9.419-1.1 12-3.225v3.225c0 2.206-5.375 4-12 4s-12-1.794-12-4v-3.225zM26 19.462v-3.975c2.419-0.431 4.55-1.131 6-2.156v2.669c0 1.481-2.419 2.769-6 3.463zM12 10c6.625 0 12 2.238 12 5s-5.375 5-12 5-12-2.238-12-5 5.375-5 12-5zM25.706 13.519c-0.55-1.481-1.906-2.681-3.75-3.575 4.012-0.2 7.825-1.044 10.044-2.612v2.669c0 1.519-2.544 2.844-6.294 3.519z"></path>
</symbol>
<symbol id="icon-shield-alt" viewBox="0 0 32 32">
<path d="M29.156 5.231c1.113 0.462 1.844 1.556 1.844 2.769 0 13.831-8.494 21.538-13.85 23.769-0.738 0.306-1.569 0.306-2.306 0-6.688-2.787-13.844-11.363-13.844-23.769 0-1.213 0.731-2.306 1.85-2.769l12-5c0.355-0.147 0.748-0.228 1.155-0.228s0.796 0.081 1.151 0.228zM16.006 27.894c5.856-2.912 10.781-9.769 10.988-19.231l-10.994-4.581z"></path>
</symbol>
<symbol id="icon-hands-helping" viewBox="0 0 40 32">
<path d="M30.5 12c0.831 0 1.5 0.669 1.5 1.5v3c0 0.831-0.669 1.5-1.5 1.5h-0.5v4c0 1.106-0.894 2-2 2h-1c0 2.206-1.794 4-4 4h-8.537l-6.463 3.731c-0.956 0.55-2.181 0.225-2.731-0.731l-5-8.663c-0.556-0.956-0.225-2.181 0.731-2.731l5-2.887v-2.956c0-1.4 0.737-2.706 1.944-3.425l4.056-2.438v7.6c0 2.481 2.019 4.5 4.5 4.5s4.5-2.019 4.5-4.5v-3.5h9.5zM39.731 9.662c0.55 0.956 0.225 2.175-0.731 2.731l-5 2.887v-1.781c0-1.931-1.569-3.5-3.5-3.5h-11.5v5.5c0 1.381-1.119 2.5-2.5 2.5s-2.5-1.119-2.5-2.5v-7.894c0-0.688 0.35-1.331 0.938-1.694l2.094-1.306c0.637-0.394 1.369-0.606 2.119-0.606h6.387l6.462-3.731c0.956-0.55 2.181-0.225 2.731 0.731z"></path>
</symbol>
<symbol id="icon-file-invoice-dollar" viewBox="0 0 24 32">
<path d="M23.563 6.563c0.281 0.281 0.438 0.662 0.438 1.056v0.381h-8v-8h0.381c0.4 0 0.781 0.156 1.063 0.438zM14 8.5c0 0.825 0.675 1.5 1.5 1.5h8.5v20.5c0 0.831-0.669 1.5-1.5 1.5h-21c-0.831 0-1.5-0.669-1.5-1.5v-29c0-0.831 0.669-1.5 1.5-1.5h12.5v8.5zM4 4.5v1c0 0.276 0.224 0.5 0.5 0.5h5c0.276 0 0.5-0.224 0.5-0.5v-1c0-0.276-0.224-0.5-0.5-0.5h-5c-0.276 0-0.5 0.224-0.5 0.5zM4 9.5c0 0.276 0.224 0.5 0.5 0.5h5c0.276 0 0.5-0.224 0.5-0.5v-1c0-0.276-0.224-0.5-0.5-0.5h-5c-0.276 0-0.5 0.224-0.5 0.5v1zM13 25.992c1.476-0.039 2.667-1.284 2.667-2.817 0-1.248-0.812-2.363-1.974-2.712l-2.813-0.844c-0.322-0.096-0.548-0.424-0.548-0.796 0-0.454 0.331-0.824 0.738-0.824h1.757c0.285 0 0.559 0.081 0.801 0.232 0.203 0.127 0.46 0.119 0.633-0.046l0.734-0.701c0.221-0.211 0.208-0.576-0.036-0.759-0.569-0.427-1.255-0.673-1.961-0.709v-1.518c0-0.276-0.224-0.5-0.5-0.5h-1c-0.276 0-0.5 0.224-0.5 0.5v1.507c-1.476 0.039-2.667 1.284-2.667 2.817 0 1.248 0.812 2.363 1.974 2.712l2.813 0.844c0.322 0.096 0.548 0.424 0.548 0.796 0 0.454-0.331 0.824-0.738 0.824h-1.757c-0.285 0-0.559-0.081-0.801-0.232-0.203-0.127-0.46-0.119-0.633 0.046l-0.734 0.701c-0.221 0.211-0.208 0.576 0.036 0.759 0.569 0.427 1.255 0.673 1.961 0.709v1.518c0 0.276 0.224 0.5 0.5 0.5h1c0.276 0 0.5-0.224 0.5-0.5v-1.508z"></path>
</symbol>
<symbol id="icon-stopwatch-20" viewBox="0 0 28 32">
<path d="M24.906 11.932c1.319 2.021 2.094 4.446 2.094 7.037 0 0.010-0 0.021-0 0.031 0 7.25-5.929 13.111-13.205 13-7.122-0.111-13.005-6.281-12.789-13.402 0.194-6.307 4.904-11.496 10.994-12.442v-2.156h-2c-0.551-0.002-0.998-0.449-1-1v-2c0.002-0.551 0.449-0.998 1-1h8c0.552 0 1 0.448 1 1v2c0 0.552-0.448 1-1 1h-2v2.156c2.334 0.361 4.484 1.352 6.231 2.787l1.542-1.542c0.181-0.181 0.431-0.293 0.707-0.293s0.526 0.112 0.707 0.293l1.417 1.417c0.181 0.181 0.293 0.431 0.293 0.707s-0.112 0.526-0.293 0.707l-1.662 1.661zM12.773 23.597l-3.071-0.003c0.113-0.977 0.928-2.262 1.651-3.2 1.369-1.881 2.147-2.858 2.147-5.082 0-2.197-0.786-3.813-3.473-3.813-2.997 0-3.527 2.059-3.527 3.765v0.254c0.004 0.279 0.232 0.504 0.512 0.504 0.003 0 0.006 0 0.008-0h1.556c0.003 0 0.005-0 0.008-0 0.28 0 0.508-0.225 0.512-0.504v-0.327c0-0.955 0.206-1.417 0.793-1.417 0.651 0 0.763 0.459 0.763 1.517 0 1.564-0.417 2.072-1.694 3.896-1.486 2.122-2.229 3.509-2.403 5.711-0.002 0.024-0.003 0.048-0.003 0.073 0 0.568 0.461 1.029 1.029 1.029 0.004 0 0.008 0 0.012-0h5.178c0.003 0 0.005-0 0.008-0 0.28 0 0.508-0.225 0.512-0.504v-1.394c-0.004-0.279-0.232-0.504-0.512-0.504-0.003 0-0.005 0-0.008 0zM21.5 22.020v-6.689c0-2.416-1.188-3.831-3.488-3.831-2.289 0-3.512 1.406-3.512 3.951v6.583c0 2.121 0.699 3.966 3.423 3.966 2.808 0 3.577-1.782 3.577-3.98zM17.992 13.858c0.626 0 0.814 0.504 0.813 1.208v7.246c0 0.829-0.21 1.329-0.813 1.329s-0.827-0.467-0.827-1.287v-7.247c0-0.781 0.239-1.25 0.827-1.25z"></path>
</symbol>
<symbol id="icon-wallet" viewBox="0 0 32 32">
<path d="M28.825 8c1.751 0 3.175 1.346 3.175 3v16c0 1.654-1.424 3-3.175 3h-24.825c-2.209 0-4-1.791-4-4v-20c0-2.209 1.791-4 4-4h23c1.657 0 3 1.343 3 3 0 0.553-0.448 1-1 1h-24c-0.553 0-1 0.447-1 1s0.447 1 1 1h23.825zM26 21c1.104 0 2-0.896 2-2s-0.896-2-2-2-2 0.896-2 2 0.896 2 2 2z"></path>
</symbol>
<symbol id="icon-question-circle" viewBox="0 0 32 32">
<path d="M31.5 16c0 8.562-6.94 15.5-15.5 15.5s-15.5-6.938-15.5-15.5c0-8.557 6.94-15.5 15.5-15.5s15.5 6.943 15.5 15.5zM16.416 5.625c-3.406 0-5.578 1.435-7.284 3.985-0.221 0.33-0.147 0.776 0.17 1.016l2.169 1.644c0.325 0.247 0.789 0.188 1.042-0.133 1.117-1.416 1.882-2.237 3.581-2.237 1.277 0 2.856 0.822 2.856 2.060 0 0.936-0.773 1.417-2.033 2.123-1.47 0.824-3.416 1.85-3.416 4.416v0.25c0 0.414 0.336 0.75 0.75 0.75h3.5c0.414 0 0.75-0.336 0.75-0.75v-0.083c0-1.779 5.199-1.853 5.199-6.667 0-3.625-3.76-6.375-7.283-6.375zM16 21.125c-1.585 0-2.875 1.29-2.875 2.875s1.29 2.875 2.875 2.875 2.875-1.29 2.875-2.875c0-1.585-1.29-2.875-2.875-2.875z"></path>
</symbol>
<symbol id="icon-paper-plane" viewBox="0 0 32 32">
<path d="M29.75 0.2c1.081-0.625 2.438 0.287 2.225 1.55l-4.5 27c-0.162 0.956-1.175 1.512-2.063 1.137l-7.787-3.262-3.969 4.831c-0.875 1.069-2.656 0.488-2.656-0.988v-5.031l15.056-18.344c0.294-0.356-0.194-0.825-0.538-0.519l-17.956 15.825-6.644-2.788c-1.125-0.475-1.269-2.050-0.137-2.7z"></path>
</symbol>
<symbol id="icon-sync-alt" viewBox="0 0 32 32">
<path d="M23.17 8.33c-1.954-1.83-4.489-2.832-7.18-2.83-4.841 0.004-9.021 3.324-10.174 7.928-0.084 0.335-0.383 0.572-0.728 0.572h-3.581c-0.469 0-0.825-0.425-0.738-0.886 1.352-7.181 7.657-12.614 15.232-12.614 4.153 0 7.924 1.633 10.707 4.293l2.232-2.232c0.945-0.945 2.561-0.276 2.561 1.061v8.379c0 0.828-0.672 1.5-1.5 1.5h-8.379c-1.336 0-2.006-1.616-1.061-2.561zM2 18.5h8.379c1.336 0 2.006 1.616 1.061 2.561l-2.609 2.609c1.954 1.83 4.49 2.832 7.18 2.83 4.839-0.004 9.020-3.321 10.174-7.928 0.084-0.335 0.383-0.572 0.728-0.572h3.582c0.469 0 0.825 0.425 0.738 0.886-1.352 7.181-7.657 12.614-15.232 12.614-4.153 0-7.924-1.633-10.707-4.293l-2.232 2.232c-0.945 0.945-2.561 0.276-2.561-1.061v-8.379c0-0.828 0.672-1.5 1.5-1.5z"></path>
</symbol>
</defs>
</svg>
