<svg aria-hidden="true" style="position: absolute; width: 0; height: 0; overflow: hidden;" version="1.1" xmlns="http://www.w3.org/2000/svg" xmlns:xlink="http://www.w3.org/1999/xlink">
<defs>
<symbol id="icon-tire-service" viewBox="0 0 17.5 12.1">
<path d="M16,3.33a5.18,5.18,0,0,0-8.78,3L7,6.26a1.24,1.24,0,0,0-1,.25,1.85,1.85,0,0,0-.67,1.63,3,3,0,0,1-.14.94,1,1,0,0,1-.72.22H4.3a.23.23,0,0,0-.18-.08H3.84V2.39H4V1.88a.41.41,0,0,0-.41-.41h0V1.31h.29V.94l2.4.23V0L3.8.27,3.44,0H2.79L2.43.27,0,0V1.17L2.4.94v.37h.28v.16h0a.41.41,0,0,0-.41.41v.51h.13v8.79H1.14c-.18,0-.4,0-.4.29v0h0a.57.57,0,0,0,.12.38,1,1,0,0,0,.21.14.39.39,0,0,0,.21,0h3.5a.51.51,0,0,0,.24,0,.66.66,0,0,0,.25-.15.62.62,0,0,0,.15-.3h0v0h0v0h0c0-.22-.14-.34-.41-.34H3.84v-.47h0V10h.28A.25.25,0,0,0,4.28,10h.19a1.7,1.7,0,0,0,1.22-.43A2.27,2.27,0,0,0,6,8.18c0-.63.09-.87.43-1.15a.56.56,0,0,1,.46-.11A1.34,1.34,0,0,1,7.17,7a5.06,5.06,0,0,0,1.51,3.59,5.18,5.18,0,0,0,7.31,0,5.11,5.11,0,0,0,0-7.25Zm-3.67,0A3.63,3.63,0,1,1,8.69,6.93,3.62,3.62,0,0,1,12.32,3.31Zm-3.5,3.6V6.85a4.11,4.11,0,0,1,.08-.6h0L9,6H9a1.54,1.54,0,0,1,0-.17v0H9v0H9l0-.06v0a.53.53,0,0,1,.06-.14.14.14,0,0,1,0-.06h0l.08-.16h0l0,0h0A1.64,1.64,0,0,1,9.44,5l0,0,0,0a2.38,2.38,0,0,0,1.48.8.71.71,0,0,0,.39-.11.87.87,0,0,0,.28-.77A3.06,3.06,0,0,0,11.3,3.7l0-.05.06,0A3.94,3.94,0,0,1,12,3.5h.54l.21,0h0a3.82,3.82,0,0,1,.51.11l0,0,0,.05A2.91,2.91,0,0,0,13,4.91a.85.85,0,0,0,.28.77.67.67,0,0,0,.39.11A2.41,2.41,0,0,0,15.13,5l0,0,0,0a3.64,3.64,0,0,1,.23.39h0v0h0a1.08,1.08,0,0,1,.08.19l0,0h0v0a.14.14,0,0,1,0,.06v0h0v0l0,.09,0,.06h0V6a4.26,4.26,0,0,1,.13.64v.06s0,.08,0,.12v.12h-.05a4.22,4.22,0,0,0-.6,0c-.71,0-1.2.21-1.32.58a.84.84,0,0,0,.22.78,3.09,3.09,0,0,0,1,.77l0,0,0,.05a3.5,3.5,0,0,1-1.6,1.15l-.05,0v-.06c-.16-1-.61-1.62-1.1-1.62s-.94.65-1.1,1.62v.06l-.05,0A3.52,3.52,0,0,1,9.55,9.07l0,0,.05,0c.76-.39,1.26-.93,1.25-1.37a.4.4,0,0,0,0-.19c-.12-.37-.62-.59-1.32-.59a4.16,4.16,0,0,0-.6.05Z"/>
</symbol>
<symbol id="icon-spark-plug" viewBox="0 0 11.44 14.65">
<path d="M10,7.34c.21.39-.19.62-.48.84-1.31,1-2.61,2-4,2.92-.4.28-.66.27-1-.13-1.06-1.49-1.19-1.25.29-2.32,1.1-.81,2.2-1.6,3.29-2.42A1.31,1.31,0,0,1,8.94,6,3.58,3.58,0,0,1,10,7.34ZM1,3.24c.79-.57,1.55-1.18,2.35-1.73.45-.3.67-.63.33-1.11S3,.06,2.63.39,1.9.84,1.57.33A.56.56,0,0,0,.66.17C.33.43.44.68.65,1A.64.64,0,0,1,.44,2,.84.84,0,0,0,0,2.57a.74.74,0,0,0,.33.71A.52.52,0,0,0,1,3.24Zm9.4,7.83c-.61.47-1.24.91-1.86,1.36-1,.71-.94,1.37.18,1.93a5,5,0,0,0,.66.25,1.83,1.83,0,0,0,1.65-.37c.18-.12.4-.25.22-.51s-.34-.07-.5,0c-.33.2-.44.47-1.43.27-.26,0-.82-.2-.55-.66a.53.53,0,0,1,.91-.07.54.54,0,0,0,.73,0c.18-.13.35-.33.22-.55-.29-.5,0-.81.32-1s.6-.41.38-.71S10.75,10.84,10.44,11.07ZM5.58,3.16a.59.59,0,0,0-.2.07c-1,.74-2,1.48-3,2.24-.36.27-.12.51.05.79s.49.46.78.26C4.18,5.84,5.11,5.13,6,4.41a.46.46,0,0,0,.14-.64A1.34,1.34,0,0,0,5.58,3.16Zm1,1.75-3,2.23c-.36.28-.12.52,0,.79s.49.46.78.26c1-.68,1.88-1.39,2.8-2.1a.47.47,0,0,0,.14-.65,1.34,1.34,0,0,0-.59-.61A.93.93,0,0,0,6.58,4.91ZM4,1.84C3.2,2.47,2.37,3,1.56,3.61a1.09,1.09,0,0,0-.47.54.87.87,0,0,0,.39.72.5.5,0,0,0,.66,0C3,4.21,3.93,3.6,4.79,2.91a.65.65,0,0,0,0-1C4.53,1.59,4.33,1.55,4,1.84ZM7.16,12.49a.42.42,0,0,0,.58.09c.92-.65,1.82-1.3,2.73-2a.51.51,0,0,0,.15-.59.27.27,0,0,0-.29-.2.48.48,0,0,0-.18.06,25.54,25.54,0,0,0-2.9,2.18C7.11,12.2,7,12.33,7.16,12.49Zm0-1.05c.8-.6,1.62-1.18,2.43-1.76.13-.1.28-.19.31-.37a.5.5,0,0,0-.15-.46c-.14-.13-.27-.06-.38,0-.9.66-1.8,1.32-2.69,2-.16.13-.39.35-.15.6S6.88,11.61,7.11,11.44Z"/>
</symbol>
<symbol id="icon-battery" viewBox="0 0 15.47 12.32">
<path d="M15.47,11.8V12a.37.37,0,0,1-.36.37H.37A.37.37,0,0,1,0,12V11.8a.37.37,0,0,1,.37-.37H15.11A.37.37,0,0,1,15.47,11.8Zm-.36-10H14L13.81.41A.46.46,0,0,0,13.34,0h-.77a.45.45,0,0,0-.46.41L11.94,1.8h-.61V1.62a.09.09,0,0,0-.09-.09h-1a.09.09,0,0,0-.09.09V1.8H9.84V1.62a.09.09,0,0,0-.09-.09h-1a.09.09,0,0,0-.09.09V1.8H8.34V1.62a.09.09,0,0,0-.09-.09h-1a.09.09,0,0,0-.09.09V1.8H6.85V1.62a.09.09,0,0,0-.09-.09h-1a.09.09,0,0,0-.09.09V1.8H5.35V1.62a.09.09,0,0,0-.09-.09h-1a.09.09,0,0,0-.09.09V1.8H3.53L3.37.41A.46.46,0,0,0,2.9,0H2.13a.45.45,0,0,0-.46.41L1.5,1.8H.37A.36.36,0,0,0,0,2.16v.16a.36.36,0,0,0,.37.36H15.11a.36.36,0,0,0,.36-.36V2.16A.36.36,0,0,0,15.11,1.8ZM14.62,3V11.1H.86V3ZM5.6,5.5a.33.33,0,0,0-.33-.33H4.44V4.34A.32.32,0,0,0,4.12,4H3.6a.32.32,0,0,0-.32.33v.83H2.45a.33.33,0,0,0-.33.33V6a.33.33,0,0,0,.33.33h.83v.82a.32.32,0,0,0,.32.33h.52a.32.32,0,0,0,.32-.33V6.34h.83A.33.33,0,0,0,5.6,6Zm7.75,0A.33.33,0,0,0,13,5.17H10.2a.33.33,0,0,0-.33.33V6a.33.33,0,0,0,.33.33H13A.33.33,0,0,0,13.35,6Z"/>
</symbol>
<symbol id="icon-car-service" viewBox="0 0 16.25 13.06">
<path d="M2.11,11.73a.75.75,0,0,1,.11.43.89.89,0,0,1-.12.45.91.91,0,0,1-.37.33,1.19,1.19,0,0,1-.54.12,1.48,1.48,0,0,1-.63-.12,1,1,0,0,1-.41-.36A1.21,1.21,0,0,1,0,12v0l.4,0v0a.8.8,0,0,0,.1.34.55.55,0,0,0,.26.21.87.87,0,0,0,.4.09.78.78,0,0,0,.35-.07.47.47,0,0,0,.22-.16.39.39,0,0,0,.07-.23A.38.38,0,0,0,1.75,12a.59.59,0,0,0-.23-.16L1,11.67a2.28,2.28,0,0,1-.53-.19A.77.77,0,0,1,.2,11.2a.79.79,0,0,1-.1-.37.8.8,0,0,1,.13-.43.81.81,0,0,1,.35-.31,1.4,1.4,0,0,1,.51-.1,1.35,1.35,0,0,1,.55.11.83.83,0,0,1,.37.32,1,1,0,0,1,.13.47v0l-.4,0v0a.55.55,0,0,0-.17-.39.65.65,0,0,0-.45-.13.72.72,0,0,0-.46.12.35.35,0,0,0-.13.28A.32.32,0,0,0,.61,11a1.29,1.29,0,0,0,.53.2,2.83,2.83,0,0,1,.6.19A.82.82,0,0,1,2.11,11.73Zm1-.05h1.5v-.41H3.08v-.82h1.6V10h-2v3H4.75V12.6H3.08Zm4.08.49.5.84H7.13l-.37-.62L6.51,12a.75.75,0,0,0-.18-.18.55.55,0,0,0-.15-.08H5.6V13H5.18V10H6.42a1.62,1.62,0,0,1,.56.08.74.74,0,0,1,.32.29,1,1,0,0,1,.11.46.79.79,0,0,1-.19.54.86.86,0,0,1-.51.26,1,1,0,0,1,.15.11A2.2,2.2,0,0,1,7.16,12.17Zm-.44-.9a.38.38,0,0,0,.19-.16A.51.51,0,0,0,7,10.87a.41.41,0,0,0-.13-.32.62.62,0,0,0-.42-.12H5.6v.89h.74A1.25,1.25,0,0,0,6.72,11.27Zm2.23.9-.12.36c0-.11-.07-.23-.11-.36L8,10H7.55l1.08,3H9l1.09-3H9.69Zm1.48.84h.42V10h-.42ZM13.35,12a.87.87,0,0,1-.27.53.71.71,0,0,1-.49.18.78.78,0,0,1-.44-.13.79.79,0,0,1-.3-.39,1.79,1.79,0,0,1-.1-.64,2,2,0,0,1,.08-.55.81.81,0,0,1,.29-.41.8.8,0,0,1,.5-.15.67.67,0,0,1,.43.13,1,1,0,0,1,.26.45v0l.42-.11v0a1.18,1.18,0,0,0-.4-.64,1.09,1.09,0,0,0-.7-.23,1.33,1.33,0,0,0-.68.18,1.22,1.22,0,0,0-.47.53,1.84,1.84,0,0,0-.16.8,2.05,2.05,0,0,0,.14.79,1.2,1.2,0,0,0,.43.57,1.26,1.26,0,0,0,.73.2,1.11,1.11,0,0,0,.74-.26,1.38,1.38,0,0,0,.42-.74v0l-.42-.11Zm1.24.65v-.92h1.5v-.41h-1.5v-.82h1.6V10h-2v3h2.09V12.6ZM0,4.87c0,.07,0,.18,0,.28s0,.21.05.29a.37.37,0,0,1,0,.09v0a.06.06,0,0,0,.07,0l.55-.06A4.24,4.24,0,0,0,.93,6,1.32,1.32,0,0,1,1.26,6h0l.3,0A2.73,2.73,0,0,1,1.28,5,2.75,2.75,0,0,1,5.59,2.37l0,0,.08-.07L5.8,2.2l.14-.11L6.09,2l0,0a2.43,2.43,0,0,0-.28-.2l.25-.46a0,0,0,0,0,0-.07s-.2-.12-.42-.22L5.5,1l-.14,0-.1,0h0a.07.07,0,0,0-.08,0L5.06,1c0,.08-.11.2-.17.32l-.08,0-.22-.05-.16,0H3.78l-.19,0-.12,0C3.39,1,3.3.8,3.3.8s0-.05-.07,0l-.15,0L2.75.88,2.58.94,2.43,1l-.1.05h0a.07.07,0,0,0,0,.08s.09.24.19.47h0l-.27.16-.12.09L2,1.89l0,0L1.88,2h0l0,0h0l-.08.07-.08.08-.05,0-.06,0-.2.23h0C1.14,2.36.9,2.25.9,2.25a.08.08,0,0,0-.09,0l-.08.11L.65,2.5l-.09.14-.14.27L.36,3a.05.05,0,0,0,0,.07s.24.13.49.24A3.54,3.54,0,0,0,.62,4.6l-.54.08S0,4.7,0,4.73v0A.41.41,0,0,0,0,4.87ZM5.92,2.48l-.09.07-.2.17,0,0-.14,0c-.19-.05-.37-.08-.55-.11a5,5,0,0,0-.5,0L4,2.56H3.89l0,0-.08.12a4.37,4.37,0,0,0-.25.36,2,2,0,0,0-.11.2,1.06,1.06,0,0,0-.1.17c-.06.11-.09.18-.09.18v0l0,.09.17.32a6.46,6.46,0,0,0,.6.86l.1.11,0,.07,0,.13,0,.12L4,5.56l0,.18v0L5.61,5.7a3.7,3.7,0,0,1,6.5-1.36h0a2.39,2.39,0,0,1,1.39-.76l0,0-.1-.15-.06-.07-.07-.09-.18-.2L13,3a1,1,0,0,0,0-.14,5.35,5.35,0,0,0,.11-.55c0-.18,0-.35.05-.5s0-.27,0-.36V1.31l-.05,0-.11-.08C13,1.12,12.86,1,12.73,1l-.2-.11a.81.81,0,0,0-.18-.1L12.18.65h0l-.09,0-.32.17a5.87,5.87,0,0,0-.86.6l-.11.1-.07,0-.13,0-.13,0a.81.81,0,0,0-.19,0l-.18,0-.18,0-.2,0H9.35l-.07-.12A5.82,5.82,0,0,0,8.65.36,3.47,3.47,0,0,0,8.41.1L8.31,0,8.12,0l-.2,0L7.69.11,7.47.17l-.2,0L7.14.27h0L7,.41C7,.5,7,.62,6.94.76a4.91,4.91,0,0,0-.11.48,5,5,0,0,0-.07.56c0,.05,0,.09,0,.14L6.68,2l-.23.14-.09.05-.08.06-.14.1L6,2.42Zm6.82,5.84a3.09,3.09,0,0,1-.48-.4,1.6,1.6,0,0,0-1.39-.47c-.77.09-7.23,1.27-9.17,1.47h0a1.35,1.35,0,1,1-.29-2.68h0c2-.21,8.4-.41,9.17-.46A1.79,1.79,0,0,0,12,5a2.38,2.38,0,0,1,2.82-1,2.46,2.46,0,0,1,1.11.77l0,.06L14,5l-.59,1.33.86,1.18,2-.21,0,.09A2.45,2.45,0,0,1,12.74,8.32ZM2.67,7.44a1.07,1.07,0,1,0-.95,1.18A1.08,1.08,0,0,0,2.67,7.44Z"/>
</symbol>
<symbol id="icon-screwdriver-wrench" viewBox="0 0 13.75 13.75">
<path d="M13.71,11.33a.69.69,0,0,1,0,.2L12,9.82l-1.63.44-.43,1.62,1.69,1.69-.11,0A2.82,2.82,0,0,1,8.3,11.8a2.76,2.76,0,0,1-.14-1.31,1.84,1.84,0,0,0-.64-1.65C6.67,8,5.79,7.14,5,6.26a2,2,0,0,0-1.75-.67A2.75,2.75,0,0,1,.28,3.79,2.77,2.77,0,0,1,.17,2.23a.14.14,0,0,1,0-.07L1.82,3.79l1.62-.43.44-1.63L2.25.1l.1,0A2.81,2.81,0,0,1,5.69,2.49a3.48,3.48,0,0,1,0,.72,1.83,1.83,0,0,0,.59,1.58c.86.84,1.7,1.69,2.55,2.54a1.82,1.82,0,0,0,1.89.73A2.8,2.8,0,0,1,13.71,11.33ZM6.12,9c-1.22,1.2-2.43,2.42-3.64,3.63l-.22.22c-.15.14-.3.27-.5.08s-.09-.34.05-.49L2.18,12C3.39,10.83,4.6,9.61,5.82,8.4c.18-.18.22-.29,0-.5s-.31-.13-.47,0l-.29.29-3.7,3.72c-.14.15-.31.28-.49.12s-.11-.38.06-.54l4-4c.15-.15.38-.23.14-.48s-.35-.11-.52.06C4,7.69,3.34,8.31,2.72,8.93S1.21,10.42.47,11.18a1.49,1.49,0,0,0,1,2.57,1.49,1.49,0,0,0,1.15-.5l3.9-3.9c.14-.14.4-.26.12-.53S6.25,8.85,6.12,9Zm5.62-6.3.93-.36,1-1.58L13.12.16l-1.58,1-.37.93L7.64,5.64l.56.56Z"/>
</symbol>
<symbol id="icon-car-fan" viewBox="0 0 17.5 13.83">
<path d="M17.5,8.75a8.71,8.71,0,0,1-1.18,4.39l-2.2-1.27A6.23,6.23,0,0,0,9.17,2.54V0A8.78,8.78,0,0,1,17.5,8.75ZM1.18,4.37a8.74,8.74,0,0,0,0,8.77l2.2-1.27a6.23,6.23,0,0,1,5-9.33V0A8.77,8.77,0,0,0,1.18,4.37Zm11.19,5.86h.15c1.06,0,1.25-1.28,1.28-1.68V8.15a1.76,1.76,0,0,0-1.86-1.86A3.2,3.2,0,0,0,9.85,7.52c-.16.16-.31.31-.45.43L9.33,8,9.25,8a2.17,2.17,0,0,0-.33-.1l-.11,0-.09,0v-.1A1.52,1.52,0,0,1,9.13,6.4a1.64,1.64,0,0,1,.37-.28,1.54,1.54,0,0,0,.29-.21,1.23,1.23,0,0,0,.41-.67A1.1,1.1,0,0,0,10,4.48a1.94,1.94,0,0,0-1.66-.69A2.17,2.17,0,0,0,6.6,4.5a2.05,2.05,0,0,0-.33,1.14,2.4,2.4,0,0,0,.62,1.44,8.4,8.4,0,0,0,.89,1l.13.13L8,8.26l0,.1a.58.58,0,0,0-.07.19.8.8,0,0,1-.09.26l0,.06H7.68l-.21,0a1.63,1.63,0,0,1-1.13-.46,2,2,0,0,1-.25-.35C6,8,6,7.88,5.89,7.8a1.21,1.21,0,0,0-.83-.42l-.21,0A1.39,1.39,0,0,0,4,8.18a2.66,2.66,0,0,0,0,2.19,1.75,1.75,0,0,0,1.59,1,1.84,1.84,0,0,0,.33,0,3.44,3.44,0,0,0,1.79-1.15c.17-.17.33-.33.49-.47l.07-.06.08,0,.23.07.22.06.08,0v.08a1.65,1.65,0,0,1-.44,1.36.91.91,0,0,1-.24.16.4.4,0,0,0-.13.07c-.18.12-1,.78-.54,1.61A1.85,1.85,0,0,0,9,13.83h.41a1.75,1.75,0,0,0,1.84-1.68,2.28,2.28,0,0,0-.67-1.67h0a9.61,9.61,0,0,0-1-1.06l-.11-.11.12-.1a.43.43,0,0,0,0-.16.61.61,0,0,1,.11-.28l0,0H10a1.66,1.66,0,0,1,1.21.49,1.2,1.2,0,0,1,.19.29l.13.21A1.42,1.42,0,0,0,12.37,10.23Z"/>
</symbol>
<symbol id="icon-car-check" viewBox="0 0 16.39 13.37">
<path d="M10.17,2.48h3.06c.3,0,.55-.18.55-.41V1.35c0-.22-.25-.41-.55-.41h-.41A1.05,1.05,0,0,0,12.53.3a1,1,0,0,0-1.46,0,1.05,1.05,0,0,0-.29.64h-.61c-.31,0-.55.19-.55.41v.72C9.62,2.3,9.86,2.48,10.17,2.48ZM11.47.7a.48.48,0,0,1,.66,0,.46.46,0,0,1,.12.24h-.9A.46.46,0,0,1,11.47.7Zm4.92,2.16v9.07a1.53,1.53,0,0,1-1.6,1.44H8.61A1.53,1.53,0,0,1,7,11.93V2.86a1.52,1.52,0,0,1,1.6-1.43h.88v.48H8.61a1,1,0,0,0-1.07,1v9.07a1,1,0,0,0,1.07,1h6.18a1,1,0,0,0,1.07-1V2.86a1,1,0,0,0-1.07-.95h-.88V1.43h.88A1.52,1.52,0,0,1,16.39,2.86ZM8.49,8.27c-.09-.1-.31-.35-.29-.42V7.79a1.5,1.5,0,0,1,.46-.74,1.15,1.15,0,0,1,.64-.4,9.68,9.68,0,0,1,1,1.07l.31.35,0,0h0a.27.27,0,0,0,.2,0A.22.22,0,0,0,11,8l.45-.52c.16-.19.33-.38.48-.54a14.43,14.43,0,0,1,1.24-1.2l.52-.47a10.28,10.28,0,0,1,.84-.67L15,4.25h.05l0,0a.79.79,0,0,1,.35.4c.23.46.17.52,0,.64a33.73,33.73,0,0,0-3.26,3.77l-.38.48-.26.35c-.11.16-.24.32-.35.47s-.26.3-.36.3h-.12a2.32,2.32,0,0,1-.35-.33l-.06-.06C10.12,10,9.5,9.38,9.16,9l-.47-.52ZM1.86,6.19,1.53,6V5.77a.38.38,0,0,0-.35-.41H.35A.38.38,0,0,0,0,5.77v.29a.38.38,0,0,0,.35.4h.83a.32.32,0,0,0,.21-.08l.18.08L.83,7a6,6,0,0,0-.62.72l0,.4a.46.46,0,0,0-.14.34v3.67a.43.43,0,0,0,.4.46H2.74a.42.42,0,0,0,.39-.46v-.32l3.63,0v-.52H4.55c-.22,0-.4-.1-.4-.23V11c0-.12.18-.23.4-.23H6.76V9.44H4.52A.43.43,0,0,1,4.12,9V8.32a.43.43,0,0,1,.4-.45H6.76V6.18l-4.25,0a8.52,8.52,0,0,1,.9-2,17.41,17.41,0,0,1,3.35-.44V3.44a8.17,8.17,0,0,0-3.52.61A12,12,0,0,0,1.86,6.19Zm.87,4.45a.3.3,0,0,1-.3.31H1.13a.31.31,0,0,1-.31-.31v-.15a.31.31,0,0,1,.31-.31h1.3a.3.3,0,0,1,.3.31Zm0-2.77a.41.41,0,0,1,.36.45V9a.41.41,0,0,1-.36.46H1.19A.42.42,0,0,1,.82,9V8.32a.42.42,0,0,1,.37-.45Z"/>
</symbol>
<symbol id="icon-car-towing" viewBox="0 0 17.5 8.2">
<path d="M15.83,6.89a1.31,1.31,0,1,1-1.31-1.31A1.31,1.31,0,0,1,15.83,6.89ZM3.36,5.58A1.31,1.31,0,1,0,4.67,6.89,1.31,1.31,0,0,0,3.36,5.58ZM17.5,3.18c0,1.75-.18,3.18-.4,3.18h-.88a1.78,1.78,0,0,0-3.4,0H5.05a1.77,1.77,0,0,0-3.39,0H.94a.95.95,0,0,1,0-1.89H11.86a1.3,1.3,0,0,1,0-.34c0-.55,0-1,.5-1h0c0-1.73.18-3.13.4-3.13H15C15.23,0,17.5,1.42,17.5,3.18ZM14.87.69H13.3v2h1.57Zm1.9,2A3.91,3.91,0,0,0,15.18.82V2.65Zm-6.68,1a.79.79,0,0,1-.79.79.79.79,0,1,1,0-1.58A.79.79,0,0,1,10.09,3.61ZM8.74,3.5H9l-.2-.2A.5.5,0,0,0,8.74,3.5Zm.08.43L9,3.72H8.74A.54.54,0,0,0,8.82,3.93Zm.37-.05L9,4.09a.49.49,0,0,0,.21.08Zm0-.83A.67.67,0,0,0,9,3.14l.21.2Zm.22.29.2-.2a.72.72,0,0,0-.2-.09Zm.2.75-.2-.21v.29A.5.5,0,0,0,9.61,4.09Zm.25-.37H9.57l.2.21A.56.56,0,0,0,9.86,3.72Zm0-.22a.52.52,0,0,0-.09-.2l-.2.2ZM1,2.33c0-.18-.38-.39-.28-.61l1.57-.18A7.57,7.57,0,0,1,5.58.73,8.83,8.83,0,0,1,9.1,1.89a6.51,6.51,0,0,1,2.1.89,1.43,1.43,0,0,1,.28,1,1.87,1.87,0,0,1,0,.21h-1.3a.86.86,0,0,0,.07-.36.95.95,0,0,0-1.89,0A.86.86,0,0,0,8.43,4h-5a.86.86,0,0,0,.08-.36,1,1,0,0,0-1.9,0A.86.86,0,0,0,1.73,4H1.51L.89,3.83a4,4,0,0,1-.14-.89.61.61,0,0,1,0-.14C.79,2.52,1,2.48,1,2.33Zm9.14.17a.94.94,0,0,1,.49.62h.56A1.27,1.27,0,0,0,10.14,2.5ZM3.27,1.42l.41.4H8.3A8.47,8.47,0,0,0,5.47,1,6.76,6.76,0,0,0,3.27,1.42ZM3.4,3.61a.8.8,0,1,1-.8-.79A.79.79,0,0,1,3.4,3.61ZM2,3.5h.29l-.21-.2A.5.5,0,0,0,2,3.5Zm.08.43.21-.21H2A.54.54,0,0,0,2.12,3.93Zm.37-.05-.21.21a.54.54,0,0,0,.21.08Zm0-.83a.78.78,0,0,0-.21.09l.21.2Zm.22.29.21-.2a.78.78,0,0,0-.21-.09Zm.21.75-.21-.21v.29A.54.54,0,0,0,2.92,4.09Zm.24-.37H2.87l.21.21A.54.54,0,0,0,3.16,3.72Zm0-.22a.5.5,0,0,0-.08-.2l-.21.2Z"/>
</symbol>
<symbol id="icon-car-check-2" viewBox="0 0 17.5 10.82">
<path d="M6.94,8.11H3.34A.14.14,0,0,1,3.2,8V6.23a.14.14,0,0,1,.14-.14h3a5.37,5.37,0,0,1,0-.7,6.14,6.14,0,0,1,.08-1c-2.77,0-4.71.19-4.71.19A11.24,11.24,0,0,1,3.26,2.13S5.88,2,6.82,2h.53l.1-.14-.55,0h-1L3.18,2l-.05.07h0A7.65,7.65,0,0,0,2.05,3.54c-.18.27-.35.53-.46.74v0H1.46s-.13-.57-.39-.59H.79c-.27,0-.58,0-.59.48s.33.51.61.51H1a2.57,2.57,0,0,0,.41-.09h.07l-.07.17h0a2.89,2.89,0,0,0-1,.79.81.81,0,0,0-.26.31A4,4,0,0,0,.16,8h0a.14.14,0,0,0-.07.13v2.53a.15.15,0,0,0,.14.15H1.85A.15.15,0,0,0,2,10.67v-.8c1.66.07,3.3.1,4.8.09H8.47A5.91,5.91,0,0,1,6.94,8.11Zm-4.6.81a.28.28,0,0,1-.28.28H.73a.28.28,0,0,1-.28-.28v-.2a.29.29,0,0,1,.28-.28H2.06a.29.29,0,0,1,.28.28Zm.45-2.26c0,.41,0,1-.72,1s-1.61,0-1.61,0a2.76,2.76,0,0,1,0-1.57h2A.58.58,0,0,1,2.79,6.66ZM12.11,0A5.39,5.39,0,1,0,17.5,5.39,5.4,5.4,0,0,0,12.11,0Zm0,9.82a4.43,4.43,0,1,1,4.43-4.43A4.43,4.43,0,0,1,12.11,9.82ZM14.9,2.55a.19.19,0,0,1,.22,0,.79.79,0,0,1,.39.43c.22.43.2.58,0,.77a34.22,34.22,0,0,0-3.33,3.88l-.56.75c-.19.26-.32.39-.57.33-.1,0-.25-.17-.47-.4s-.82-.86-1.12-1.2l-.61-.66c-.19-.22-.35-.39-.3-.54,0-.38.85-1.32,1.23-1.19A15.44,15.44,0,0,1,11,6.09h.08a.09.09,0,0,0,.05,0c.27-.31.6-.68.86-1,.42-.48,1.1-1,1.64-1.54A15.44,15.44,0,0,1,14.9,2.55Z"/>
</symbol>
</defs>
</svg>