<svg xmlns="http://www.w3.org/2000/svg" viewBox="0 0 17.5 12.1"><defs><style>.cls-1{fill:#000d20;}</style></defs><g id="Warstwa_2" data-name="Warstwa 2"><g id="Ńëîé_1" data-name="Ńëîé 1"><path class="cls-1" d="M16,3.33a5.18,5.18,0,0,0-8.78,3L7,6.26a1.24,1.24,0,0,0-1,.25,1.85,1.85,0,0,0-.67,1.63,3,3,0,0,1-.14.94,1,1,0,0,1-.72.22H4.3a.23.23,0,0,0-.18-.08H3.84V2.39H4V1.88a.41.41,0,0,0-.41-.41h0V1.31h.29V.94l2.4.23V0L3.8.27,3.44,0H2.79L2.43.27,0,0V1.17L2.4.94v.37h.28v.16h0a.41.41,0,0,0-.41.41v.51h.13v8.79H1.14c-.18,0-.4,0-.4.29v0h0a.57.57,0,0,0,.12.38,1,1,0,0,0,.21.14.39.39,0,0,0,.21,0h3.5a.51.51,0,0,0,.24,0,.66.66,0,0,0,.25-.15.62.62,0,0,0,.15-.3h0v0h0v0h0c0-.22-.14-.34-.41-.34H3.84v-.47h0V10h.28A.25.25,0,0,0,4.28,10h.19a1.7,1.7,0,0,0,1.22-.43A2.27,2.27,0,0,0,6,8.18c0-.63.09-.87.43-1.15a.56.56,0,0,1,.46-.11A1.34,1.34,0,0,1,7.17,7a5.06,5.06,0,0,0,1.51,3.59,5.18,5.18,0,0,0,7.31,0,5.11,5.11,0,0,0,0-7.25Zm-3.67,0A3.63,3.63,0,1,1,8.69,6.93,3.62,3.62,0,0,1,12.32,3.31Zm-3.5,3.6V6.85a4.11,4.11,0,0,1,.08-.6h0L9,6H9a1.54,1.54,0,0,1,0-.17v0H9v0H9l0-.06v0a.53.53,0,0,1,.06-.14.14.14,0,0,1,0-.06h0l.08-.16h0l0,0h0A1.64,1.64,0,0,1,9.44,5l0,0,0,0a2.38,2.38,0,0,0,1.48.8.71.71,0,0,0,.39-.11.87.87,0,0,0,.28-.77A3.06,3.06,0,0,0,11.3,3.7l0-.05.06,0A3.94,3.94,0,0,1,12,3.5h.54l.21,0h0a3.82,3.82,0,0,1,.51.11l0,0,0,.05A2.91,2.91,0,0,0,13,4.91a.85.85,0,0,0,.28.77.67.67,0,0,0,.39.11A2.41,2.41,0,0,0,15.13,5l0,0,0,0a3.64,3.64,0,0,1,.23.39h0v0h0a1.08,1.08,0,0,1,.08.19l0,0h0v0a.14.14,0,0,1,0,.06v0h0v0l0,.09,0,.06h0V6a4.26,4.26,0,0,1,.13.64v.06s0,.08,0,.12v.12h-.05a4.22,4.22,0,0,0-.6,0c-.71,0-1.2.21-1.32.58a.84.84,0,0,0,.22.78,3.09,3.09,0,0,0,1,.77l0,0,0,.05a3.5,3.5,0,0,1-1.6,1.15l-.05,0v-.06c-.16-1-.61-1.62-1.1-1.62s-.94.65-1.1,1.62v.06l-.05,0A3.52,3.52,0,0,1,9.55,9.07l0,0,.05,0c.76-.39,1.26-.93,1.25-1.37a.4.4,0,0,0,0-.19c-.12-.37-.62-.59-1.32-.59a4.16,4.16,0,0,0-.6.05Z"/></g></g></svg>